<svg width="31" height="31" viewBox="0 0 31 31" fill="none" xmlns="http://www.w3.org/2000/svg">
<path d="M15.5 30.875C11.5708 30.875 8.14733 29.5727 5.2295 26.968C2.31167 24.3634 0.638639 21.1102 0.210417 17.2083H3.7125C4.11111 20.1694 5.42824 22.6181 7.66388 24.5542C9.89951 26.4903 12.5116 27.4583 15.5 27.4583C18.8313 27.4583 21.6574 26.2984 23.9785 23.9785C26.2995 21.6585 27.4595 18.8324 27.4583 15.5C27.4572 12.1676 26.2972 9.34203 23.9785 7.02325C21.6597 4.70447 18.8335 3.54394 15.5 3.54167C13.5354 3.54167 11.699 3.99722 9.99062 4.90833C8.28229 5.81945 6.84444 7.07222 5.67708 8.66667H10.375V12.0833H0.125V1.83333H3.54167V5.84792C4.99375 4.02569 6.76643 2.61632 8.85971 1.61979C10.953 0.623264 13.1664 0.125 15.5 0.125C17.6354 0.125 19.6359 0.531014 21.5014 1.34304C23.3669 2.15507 24.9898 3.25068 26.3701 4.62988C27.7505 6.00907 28.8466 7.63199 29.6587 9.49863C30.4707 11.3653 30.8761 13.3657 30.875 15.5C30.8739 17.6343 30.4684 19.6347 29.6587 21.5014C28.8489 23.368 27.7527 24.9909 26.3701 26.3701C24.9875 27.7493 23.3646 28.8455 21.5014 29.6587C19.6382 30.4718 17.6377 30.8773 15.5 30.875ZM20.2833 22.675L13.7917 16.1833V6.95833H17.2083V14.8167L22.675 20.2833L20.2833 22.675Z" fill="black"/>
</svg>
