<svg width="35" height="30" viewBox="0 0 35 30" fill="none" xmlns="http://www.w3.org/2000/svg">
<path d="M29.4583 3H26.0416V1.5C26.0416 1.10218 25.8616 0.720644 25.5413 0.43934C25.2209 0.158035 24.7864 0 24.3333 0C23.8802 0 23.4457 0.158035 23.1253 0.43934C22.8049 0.720644 22.625 1.10218 22.625 1.5V3H12.375V1.5C12.375 1.10218 12.195 0.720644 11.8746 0.43934C11.5542 0.158035 11.1197 0 10.6666 0C10.2135 0 9.77903 0.158035 9.45865 0.43934C9.13828 0.720644 8.95829 1.10218 8.95829 1.5V3H5.54163C4.18239 3 2.87883 3.47411 1.9177 4.31802C0.95658 5.16193 0.416626 6.30653 0.416626 7.5V25.5C0.416626 26.6935 0.95658 27.8381 1.9177 28.682C2.87883 29.5259 4.18239 30 5.54163 30H29.4583C30.8175 30 32.1211 29.5259 33.0822 28.682C34.0433 27.8381 34.5833 26.6935 34.5833 25.5V7.5C34.5833 6.30653 34.0433 5.16193 33.0822 4.31802C32.1211 3.47411 30.8175 3 29.4583 3ZM31.1666 25.5C31.1666 25.8978 30.9866 26.2794 30.6663 26.5607C30.3459 26.842 29.9114 27 29.4583 27H5.54163C5.08855 27 4.65403 26.842 4.33365 26.5607C4.01328 26.2794 3.83329 25.8978 3.83329 25.5V15H31.1666V25.5ZM31.1666 12H3.83329V7.5C3.83329 7.10217 4.01328 6.72064 4.33365 6.43934C4.65403 6.15804 5.08855 6 5.54163 6H8.95829V7.5C8.95829 7.89782 9.13828 8.27936 9.45865 8.56066C9.77903 8.84196 10.2135 9 10.6666 9C11.1197 9 11.5542 8.84196 11.8746 8.56066C12.195 8.27936 12.375 7.89782 12.375 7.5V6H22.625V7.5C22.625 7.89782 22.8049 8.27936 23.1253 8.56066C23.4457 8.84196 23.8802 9 24.3333 9C24.7864 9 25.2209 8.84196 25.5413 8.56066C25.8616 8.27936 26.0416 7.89782 26.0416 7.5V6H29.4583C29.9114 6 30.3459 6.15804 30.6663 6.43934C30.9866 6.72064 31.1666 7.10217 31.1666 7.5V12Z" fill="black"/>
</svg>
